<svg xmlns="http://www.w3.org/2000/svg" viewBox="0 0 300 245">
  <g transform="translate(0,245) scale(0.1,-0.1)" fill="currentColor" stroke="none">

<path d="M1435 2373 c-26 -15 -28 -18 -10 -21 11 -2 26 -9 33 -15 9 -7 16 -7
24 1 15 15 42 16 33 2 -3 -5 -1 -10 4 -10 19 0 12 28 -11 44 -28 20 -35 19
-73 -1z"/>
<path d="M1278 2363 c-16 -15 -15 -17 8 -30 22 -11 28 -10 42 3 12 12 17 13
20 4 2 -6 -1 -17 -7 -23 -29 -29 3 -73 35 -47 11 10 18 10 26 2 7 -7 17 -12
23 -12 5 0 2 5 -7 11 -10 5 -18 19 -18 29 0 10 8 24 18 29 9 6 12 11 6 11 -14
0 -44 -33 -44 -49 0 -7 -5 -9 -10 -6 -8 5 -8 11 0 20 8 9 3 20 -19 44 -33 35
-49 38 -73 14z"/>
<path d="M1583 2344 c-15 -20 -29 -32 -30 -27 -2 5 -16 8 -31 5 -24 -3 -28 -9
-30 -37 -2 -18 1 -36 6 -39 5 -3 7 5 5 18 -5 23 8 38 35 42 6 1 12 -5 12 -13
0 -13 -3 -13 -15 -3 -10 9 -15 9 -15 1 0 -6 6 -11 13 -12 6 0 3 -4 -8 -9 -16
-7 -17 -9 -3 -9 9 -1 20 3 23 9 4 6 13 5 24 -2 25 -15 50 -4 48 21 -1 12 -4
21 -8 21 -4 0 -9 9 -12 20 -6 24 -3 25 18 3 14 -13 21 -14 36 -5 24 15 26 15
26 -3 0 -8 -6 -15 -14 -15 -7 0 -13 -6 -14 -12 0 -7 -2 -20 -4 -29 -2 -12 4
-16 24 -15 24 1 26 4 24 44 -1 31 -8 49 -24 63 -32 28 -55 24 -86 -17z m13
-57 c8 3 14 0 14 -6 0 -14 -37 -14 -45 -1 -4 6 -3 19 1 28 6 15 8 14 11 -5 3
-14 9 -20 19 -16z m89 -17 c3 -5 -1 -10 -9 -10 -8 0 -18 5 -21 10 -3 6 1 10 9
10 8 0 18 -4 21 -10z"/>
<path d="M1096 2332 c-9 -8 8 -42 19 -42 8 0 28 -25 46 -56 l32 -56 0 -257 1
-256 5 215 c4 118 9 222 14 230 5 10 22 15 55 14 30 -1 35 0 12 3 -58 6 -66
11 -44 29 16 13 16 15 2 10 -12 -3 -15 -1 -11 10 3 10 -2 14 -18 15 -13 0 -18
3 -11 6 10 4 9 9 -5 20 -17 13 -16 14 7 8 18 -5 21 -4 11 4 -21 14 -24 44 -3
32 10 -6 21 -3 35 9 19 19 52 17 41 -2 -4 -6 -10 -5 -15 3 -7 11 -9 10 -9 -3
0 -20 8 -22 29 -9 15 9 7 51 -10 51 -6 0 -7 5 -3 11 4 7 1 10 -7 7 -8 -3 -19
-13 -24 -24 -6 -10 -16 -20 -24 -22 -7 -1 -10 1 -7 6 9 15 -31 40 -73 44 -23
2 -44 2 -45 0z m83 -41 c-15 -5 -22 6 -14 19 6 9 10 9 16 -1 5 -8 4 -15 -2
-18z"/>
<path d="M1797 2332 c-39 -3 -80 -29 -71 -44 3 -4 -3 -5 -12 -1 -14 5 -16 3
-11 -11 4 -10 7 -20 7 -22 0 -3 9 0 20 6 17 9 20 8 20 -10 0 -14 4 -19 13 -14
6 4 5 -1 -4 -11 -19 -19 -64 -12 -53 8 5 8 2 8 -7 0 -17 -16 -41 -17 -57 -1
-14 14 -45 20 -37 8 3 -5 1 -11 -5 -15 -14 -9 -52 4 -45 16 4 5 -1 9 -10 9 -9
0 -13 -4 -10 -10 3 -5 0 -10 -7 -11 -38 -3 48 -17 112 -19 41 -1 84 -5 95 -10
19 -8 19 -9 -1 -9 -25 -1 -40 -29 -24 -45 8 -8 9 -6 5 7 -4 9 -3 17 2 17 6 0
9 -12 8 -27 -1 -20 -8 -29 -25 -34 l-25 -7 27 -1 c15 -1 30 -5 33 -11 4 -7
-85 -10 -260 -10 l-266 0 3 -218 3 -219 33 -52 c36 -60 39 -69 15 -50 -10 7 0
-6 22 -29 21 -23 41 -42 44 -42 2 0 -6 11 -19 25 -13 14 -19 25 -13 25 11 0
52 -41 52 -53 -1 -5 3 -12 7 -15 4 -4 4 -1 0 6 -12 21 7 13 69 -28 58 -38 67
-51 22 -29 -21 10 -21 10 -2 -6 21 -17 40 -15 40 3 0 7 18 23 40 37 45 27 60
31 49 13 -4 -8 -3 -10 2 -5 5 5 9 14 9 20 0 5 6 12 14 15 9 3 11 0 6 -9 -5 -8
1 -6 13 5 12 10 20 22 17 26 -5 8 35 48 50 50 6 1 12 4 15 7 3 4 -1 3 -7 -1
-18 -10 -17 -5 14 54 28 55 28 51 37 390 4 163 9 192 36 230 12 17 18 35 14
41 -4 8 -3 9 4 5 7 -4 12 -2 12 3 0 6 6 11 14 11 16 0 31 30 19 39 -4 4 -25 5
-46 3z m-496 -282 c5 0 9 -18 9 -40 0 -40 0 -40 -38 -40 l-38 0 4 38 c5 39 18
55 40 47 8 -3 18 -5 23 -5z m123 4 c22 -8 23 -84 1 -84 -8 0 -16 8 -16 18 -1
16 -2 16 -6 0 -9 -35 -33 -20 -33 21 0 45 18 59 54 45z m61 -22 c0 -32 -18
-32 -19 1 -1 15 3 26 9 24 5 -2 10 -13 10 -25z m78 14 c8 -9 12 -26 9 -45 -4
-28 -8 -31 -39 -31 -34 0 -34 1 -32 38 3 33 16 49 41 51 4 1 13 -5 21 -13z
m131 -2 c9 -8 16 -29 16 -45 0 -27 -3 -29 -38 -29 -37 0 -37 1 -36 36 3 50 29
67 58 38z m-344 -29 c0 -8 -4 -15 -9 -15 -13 0 -22 16 -14 24 11 11 23 6 23
-9z m270 0 c0 -6 -7 -12 -15 -12 -8 0 -15 6 -15 12 0 6 7 12 15 12 8 0 15 -6
15 -12z m-12 -201 l-3 -145 -42 -40 c-38 -35 -48 -39 -93 -39 -43 0 -55 5 -86
33 -44 40 -54 87 -48 232 2 55 4 101 4 103 0 1 61 2 136 2 l135 0 -3 -146z
m-307 92 c0 -6 2 -26 5 -43 4 -32 3 -33 -34 -33 -38 0 -38 0 -34 37 5 39 27
64 49 56 7 -3 13 -10 14 -17z m401 -6 c4 -8 7 -27 7 -42 1 -26 -2 -28 -37 -28
l-38 0 4 38 c3 20 10 40 16 44 16 11 40 5 48 -12z m-422 -120 c0 -5 6 -10 13
-10 8 0 13 -15 14 -39 2 -42 -9 -51 -52 -43 -17 3 -20 9 -17 40 4 34 19 61 35
62 4 0 7 -4 7 -10z m400 0 c0 -5 6 -10 13 -10 8 0 14 -15 15 -40 l3 -40 -41 0
c-35 0 -40 2 -32 16 5 9 7 25 5 35 -3 10 1 25 9 33 15 18 28 20 28 6z m-400
-130 c-6 -11 -15 -18 -21 -14 -6 4 -6 11 2 20 17 21 31 17 19 -6z m403 0 c6
-23 -3 -26 -21 -8 -16 16 -15 28 2 28 7 0 16 -9 19 -20z m-326 -42 c21 -22 24
-31 15 -40 -10 -10 -15 -10 -23 2 -8 12 -9 11 -7 -5 2 -12 -3 -20 -12 -20 -9
0 -15 9 -14 21 0 13 -6 21 -15 20 -14 -1 -23 28 -14 46 7 15 45 2 70 -24z
m298 2 c0 -17 -5 -25 -16 -24 -11 1 -15 -5 -12 -16 5 -20 -11 -35 -27 -25 -8
5 -7 11 1 21 7 9 8 14 1 14 -6 0 -12 -6 -15 -12 -3 -10 -7 -10 -17 -1 -17 16
-2 36 22 30 14 -4 17 -2 9 7 -14 17 7 38 34 34 14 -2 20 -11 20 -28z m-235
-82 c0 -41 -14 -67 -23 -44 -4 9 -13 16 -22 16 -8 0 -15 2 -15 4 0 2 -3 12 -7
22 -5 13 -3 16 10 11 9 -3 16 -3 16 1 -3 17 2 22 21 22 16 0 20 -7 20 -32z
m74 16 c9 -8 16 -31 16 -50 0 -33 -1 -34 -40 -34 -33 0 -40 3 -40 20 0 11 6
20 13 21 10 0 10 2 0 6 -7 2 -13 8 -13 13 0 11 29 40 40 40 5 0 16 -7 24 -16z
m79 2 c24 -18 21 -34 -8 -48 -14 -6 -25 -15 -25 -20 0 -5 -4 -7 -8 -4 -5 3 -9
23 -10 46 -2 32 2 40 16 40 9 0 25 -7 35 -14z"/>
<path d="M1440 1895 c0 -38 17 -52 47 -41 15 6 15 8 3 16 -13 8 -12 10 3 10
11 0 17 8 17 25 0 22 -4 25 -35 25 -33 0 -35 -2 -35 -35z"/>
<path d="M1350 1811 c0 -13 27 -21 45 -15 25 10 17 24 -15 24 -16 0 -30 -4
-30 -9z"/>
<path d="M1440 1786 c0 -38 19 -60 44 -50 20 8 20 14 -1 29 -17 13 -10 36 10
34 9 0 9 -2 0 -6 -18 -7 -16 -23 2 -23 16 0 19 9 9 34 -4 10 -18 16 -35 16
-26 0 -29 -3 -29 -34z"/>
<path d="M1530 1787 c0 -19 7 -40 15 -47 19 -16 49 -5 41 16 -3 9 -2 12 5 8 7
-4 9 4 7 22 -2 25 -8 29 -35 32 -31 3 -33 2 -33 -31z"/>
<path d="M1393 1776 c4 -10 1 -13 -9 -9 -7 3 -14 0 -14 -7 0 -6 -4 -8 -10 -5
-5 3 -10 2 -10 -3 0 -13 27 -23 45 -16 17 7 21 54 4 54 -6 0 -9 -7 -6 -14z"/>
<path d="M1442 1663 c3 -33 6 -38 28 -38 20 0 26 6 28 28 2 17 -1 27 -10 27
-9 0 -9 3 2 10 11 7 7 10 -18 10 -32 0 -33 -1 -30 -37z"/>
<path d="M1410 2300 c0 -22 15 -27 23 -7 3 6 6 3 6 -7 1 -24 14 -13 16 14 1
15 -5 20 -22 20 -16 0 -23 -6 -23 -20z"/>
<path d="M2422 2245 c-7 -16 -8 -26 -1 -30 11 -8 3 -41 -18 -70 -15 -20 -15
-20 -10 3 6 26 -1 28 -30 7 -16 -12 -23 -12 -29 -3 -4 6 -2 14 4 16 16 5 15
37 -2 51 -20 16 -68 -3 -60 -24 5 -12 9 -13 20 -4 23 19 27 5 27 -83 0 -49 5
-86 11 -90 7 -5 5 -8 -4 -8 -9 0 -21 15 -28 33 -14 38 -16 91 -4 83 4 -2 9 9
10 25 2 20 -1 28 -8 24 -6 -4 -9 -10 -6 -13 3 -3 1 -11 -4 -17 -13 -16 -21
-107 -10 -120 10 -13 -18 -107 -30 -100 -6 4 -10 12 -10 20 0 7 -14 25 -32 40
-24 20 -39 25 -59 21 -16 -3 -31 -1 -34 4 -4 6 7 10 23 10 25 0 32 6 41 31 13
39 14 35 -2 51 -7 7 -18 26 -25 42 -12 27 -15 28 -60 22 -28 -3 -41 -2 -34 3
8 5 12 17 9 27 -3 15 -8 11 -20 -18 -22 -48 -21 -72 1 -89 14 -11 15 -11 5 1
-15 17 -17 60 -3 60 6 0 10 -10 11 -22 0 -22 1 -22 9 -3 7 15 9 10 8 -22 -1
-23 4 -48 10 -56 14 -16 12 -42 -6 -74 -7 -12 -12 -41 -12 -65 0 -24 -6 -50
-12 -57 -11 -10 -9 -15 7 -27 11 -8 30 -17 42 -20 18 -5 23 -16 29 -60 4 -36
11 -54 20 -54 8 0 14 -7 14 -16 0 -8 -4 -12 -10 -9 -6 4 -10 -5 -10 -20 0 -22
-3 -25 -24 -19 -22 5 -36 -11 -40 -51 -1 -5 -7 -14 -14 -18 -10 -7 -11 -12 -1
-23 10 -12 8 -16 -9 -21 -28 -7 -28 -19 1 -27 21 -5 20 -7 -15 -32 -36 -26
-50 -54 -28 -54 6 0 10 -7 10 -15 0 -9 9 -15 25 -15 20 0 25 -5 25 -25 0 -31
5 -31 50 -3 19 12 51 22 70 23 19 1 44 6 54 10 17 8 19 5 13 -28 -6 -41 21
-87 52 -87 23 0 41 -20 41 -45 -1 -18 -2 -18 -11 -3 -5 10 -26 22 -46 27 -58
16 -123 -21 -123 -71 0 -7 12 2 26 20 22 27 32 32 67 32 58 -1 88 -28 95 -85
4 -39 2 -45 -12 -39 -9 3 -16 1 -16 -6 0 -6 -4 -9 -8 -6 -14 8 -52 -33 -46
-49 7 -17 -21 -21 -31 -5 -11 18 -26 10 -20 -10 3 -11 2 -20 -3 -20 -16 0 -1
-40 18 -50 23 -12 31 -3 24 26 -5 18 -2 24 11 24 21 0 57 -19 72 -39 7 -9 13
-11 13 -5 0 5 -13 23 -30 39 -16 16 -30 31 -30 35 0 9 71 45 92 46 10 1 18 -4
18 -11 0 -7 9 -23 20 -36 l19 -24 1 30 c0 48 -50 101 -62 65 -1 -5 -4 16 -5
47 -2 64 16 105 54 122 44 20 62 14 61 -20 -1 -17 4 -34 11 -38 6 -4 9 -15 5
-24 -4 -13 -1 -17 15 -17 12 0 20 -6 18 -12 -1 -7 4 -12 11 -10 7 1 29 -5 48
-13 45 -18 49 -19 35 -1 -6 7 -9 20 -5 29 3 8 1 18 -5 22 -6 3 -11 2 -11 -3 0
-16 -35 -20 -48 -5 -7 7 -10 13 -6 13 4 0 -3 11 -16 26 -20 20 -22 27 -11 34
19 11 59 -8 67 -32 3 -11 8 -17 11 -15 9 10 -19 48 -43 57 -29 11 -30 21 -6
42 27 25 62 32 62 14 0 -11 9 -16 30 -16 36 0 37 6 7 43 -20 25 -25 27 -50 18
-15 -6 -27 -7 -27 -3 0 4 -4 2 -8 -3 -4 -6 -20 -16 -35 -23 -22 -9 -27 -17
-22 -32 6 -20 -9 -28 -20 -10 -14 23 -67 10 -102 -25 -19 -19 -37 -35 -39 -35
-9 0 11 36 27 47 21 16 33 63 20 76 -22 22 -11 42 29 55 22 6 49 12 60 12 11
0 19 6 17 13 -1 7 10 12 30 12 40 1 42 3 48 50 5 37 5 38 -26 31 -17 -3 -38
-6 -46 -6 -12 0 -13 -3 -3 -15 10 -12 7 -19 -15 -39 -15 -14 -30 -25 -34 -24
-14 3 -62 -15 -69 -26 -4 -6 -28 -17 -55 -24 -39 -10 -53 -10 -82 2 -19 8 -35
20 -35 25 0 6 -7 11 -15 11 -8 0 -15 -4 -15 -10 0 -5 -11 -10 -23 -10 -13 0
-32 -9 -42 -20 -21 -24 -45 -26 -45 -5 0 9 -7 18 -15 21 -8 4 -15 10 -15 15 0
14 38 11 43 -3 4 -10 6 -10 6 -1 1 7 -8 17 -19 23 -29 15 -9 50 28 50 l27 1
-28 24 c-22 19 -26 29 -18 42 14 28 49 56 59 49 6 -3 15 7 20 23 6 16 20 35
32 41 41 22 120 12 120 -16 0 -8 9 -14 19 -14 19 0 21 10 7 42 -10 23 -120 46
-131 28 -3 -5 -12 -7 -20 -3 -10 3 -15 -1 -15 -12 0 -14 -3 -15 -15 -5 -13 11
-13 16 1 48 9 21 19 46 21 57 3 11 15 30 26 43 25 27 9 29 -21 2 -11 -11 -23
-16 -26 -12 -3 5 9 16 25 26 38 22 48 15 90 -70 18 -35 34 -64 36 -64 2 0 3
16 3 36 0 21 -4 33 -10 29 -5 -3 -10 -2 -10 4 0 5 6 11 12 13 9 3 3 16 -15 37
-32 39 -32 37 -8 86 11 22 21 33 25 27 4 -7 11 -54 15 -105 8 -101 17 -129 33
-106 7 10 8 9 4 -6 -6 -21 8 -54 19 -44 7 8 -21 217 -34 252 -20 52 -14 64 18
33 16 -16 34 -25 40 -22 17 11 13 23 -9 29 -20 5 -20 6 6 32 20 20 24 29 15
38 -9 9 -16 7 -29 -11 -10 -12 -28 -24 -41 -27 -18 -3 -20 -1 -12 9 8 9 7 26
-3 59 -10 32 -10 49 -3 56 19 19 29 12 22 -16 -5 -23 -4 -25 9 -14 25 21 53
73 60 113 8 43 -6 58 -22 23z m-299 -115 c4 0 5 6 2 13 -4 6 1 3 9 -8 9 -11
14 -25 12 -32 -3 -7 -1 -13 4 -13 14 0 12 -23 -4 -45 -12 -16 -16 -17 -30 -6
-12 10 -13 18 -5 33 8 15 8 19 0 14 -15 -10 -14 7 1 22 8 8 8 12 1 12 -6 0
-14 8 -18 18 -5 14 -4 15 6 5 7 -7 17 -13 22 -13z m72 -150 c-3 -5 -2 -10 3
-10 13 0 33 -56 24 -66 -4 -4 1 -4 10 -1 12 4 15 2 12 -8 -3 -8 -12 -11 -20
-8 -8 3 -14 0 -14 -7 0 -6 -4 -9 -9 -5 -5 3 -17 -2 -25 -11 -11 -11 -16 -12
-16 -3 0 10 -3 10 -11 2 -20 -20 -35 8 -36 65 0 39 3 52 13 48 7 -3 25 -1 41
4 15 4 29 9 31 9 2 1 0 -3 -3 -9z m-35 -158 c0 -4 -9 -8 -20 -9 -11 -1 -20 2
-20 8 0 5 9 9 20 9 11 0 20 -4 20 -8z m34 -30 c-6 -4 -16 -16 -22 -27 -11 -19
-11 -18 -12 8 0 21 5 27 23 27 12 0 17 -3 11 -8z m176 -427 c0 -8 -5 -15 -11
-15 -8 0 -8 -5 1 -15 10 -12 16 -13 26 -4 22 18 17 -8 -6 -33 -19 -21 -21 -21
-52 -5 -19 9 -26 16 -17 16 11 1 19 13 23 36 7 34 36 51 36 20z"/>
<path d="M2170 1965 c0 -12 24 -55 32 -55 13 0 10 17 -7 33 -8 8 -11 17 -8 21
4 3 1 6 -5 6 -7 0 -12 -2 -12 -5z"/>
<path d="M2130 1915 c0 -14 7 -21 22 -22 16 -2 19 0 9 6 -7 5 -17 15 -22 22
-7 11 -9 9 -9 -6z"/>
<path d="M833 2243 c-3 -10 -8 -21 -10 -25 -2 -4 1 -10 7 -13 6 -4 9 -2 8 3
-2 6 1 12 7 14 5 1 11 -4 13 -13 2 -11 -8 -20 -28 -27 -25 -9 -36 -8 -65 10
-20 11 -40 29 -46 40 -8 15 -14 17 -22 9 -7 -7 -5 -16 8 -31 10 -11 21 -17 26
-15 4 3 11 0 15 -6 4 -8 3 -9 -4 -5 -21 13 -13 -10 11 -32 13 -12 30 -22 39
-22 19 0 32 -42 22 -73 -7 -27 -66 -116 -76 -117 -4 0 -10 9 -13 21 -4 12 -22
38 -41 59 -31 34 -33 40 -23 68 6 17 21 38 35 47 32 21 30 35 -11 75 -37 36
-46 26 -21 -22 8 -15 12 -29 8 -32 -10 -11 -32 16 -32 40 0 20 -5 24 -29 24
-30 0 -50 -15 -30 -22 18 -6 1 -44 -27 -63 -28 -18 -41 -13 -55 22 -13 35 -28
19 -19 -21 12 -52 18 -59 55 -52 28 6 35 3 40 -15 5 -14 0 -28 -14 -43 -12
-12 -32 -51 -46 -86 -23 -59 -24 -64 -7 -76 42 -33 121 -30 172 6 35 25 47 22
30 -9 -12 -24 -6 -41 16 -41 8 0 12 -5 9 -10 -5 -8 -11 -7 -21 1 -11 9 -14 7
-14 -10 0 -26 -18 -63 -36 -73 -6 -5 -10 -17 -7 -28 3 -11 0 -20 -6 -20 -6 0
-11 -9 -11 -20 0 -26 36 -27 43 -1 6 23 61 31 108 16 22 -8 36 -21 43 -42 6
-16 16 -28 21 -27 14 5 27 -6 52 -41 l21 -29 -21 -11 c-29 -14 -32 -33 -5 -37
17 -2 24 -12 30 -42 9 -44 3 -61 -10 -26 -7 18 -11 20 -17 10 -5 -9 -4 -15 3
-18 15 -5 16 -42 2 -42 -6 0 -20 9 -32 20 -12 11 -32 20 -45 20 -13 0 -23 5
-23 10 0 6 -7 10 -15 10 -8 0 -15 -5 -15 -11 0 -5 -15 -16 -32 -24 -42 -17
-93 -5 -202 49 -72 36 -77 41 -60 53 26 19 57 12 69 -14 5 -13 16 -23 23 -23
9 0 7 9 -8 30 -12 17 -25 30 -30 30 -4 0 -15 12 -25 26 -14 23 -15 28 -2 48 8
12 31 27 52 33 l36 12 -5 -32 c-3 -18 -3 -25 1 -17 6 16 23 30 36 30 4 0 17
-19 27 -42 11 -24 20 -36 20 -27 0 33 -21 75 -48 91 -15 10 -34 23 -43 29 -14
10 -20 9 -34 -4 -9 -9 -23 -17 -31 -17 -8 0 -14 -4 -14 -10 0 -5 -5 -10 -11
-10 -18 0 -49 -41 -41 -54 3 -6 7 -15 7 -21 0 -5 10 -11 23 -13 12 -2 22 -8
22 -14 0 -7 -17 -8 -50 -4 l-50 7 5 -37 c5 -43 20 -56 52 -47 17 4 23 1 23
-11 0 -9 8 -16 20 -16 33 0 100 -24 100 -35 0 -6 -5 -16 -11 -22 -15 -15 -2
-67 22 -89 10 -9 19 -27 19 -38 0 -18 -3 -16 -20 11 -10 17 -28 37 -39 42 -25
14 -68 14 -76 1 -11 -18 -27 -11 -20 9 5 15 -2 24 -27 37 -18 10 -38 19 -44
20 -6 1 -21 5 -32 8 -15 5 -25 -1 -41 -23 -26 -37 -26 -38 5 -44 20 -3 28 0
31 14 7 24 10 24 51 -1 39 -24 40 -33 6 -49 -15 -6 -24 -14 -21 -17 3 -3 15 0
27 6 35 19 49 -4 22 -33 -12 -13 -20 -26 -16 -29 10 -10 -35 -20 -58 -13 -17
6 -20 4 -15 -9 12 -29 -20 -63 -66 -71 -105 -17 -107 -17 -107 -4 0 9 -3 10
-8 4 -4 -5 -22 -20 -39 -33 -27 -19 -33 -20 -33 -7 0 9 -4 13 -10 10 -10 -6
-14 7 -11 33 1 6 -3 12 -9 12 -20 0 -10 19 18 34 15 8 22 15 16 16 -31 1 -25
80 6 80 18 0 35 25 31 46 -2 13 68 44 98 44 22 0 35 -38 25 -75 -3 -14 -3 -33
1 -42 7 -17 8 -16 15 2 13 32 12 85 -2 85 -10 0 -9 3 1 9 9 6 11 18 8 33 -6
23 -11 24 -59 21 -29 -1 -54 -7 -56 -13 -2 -5 -10 -10 -18 -10 -8 0 -14 -4
-14 -10 0 -5 -5 -10 -11 -10 -18 0 -39 -28 -33 -44 4 -11 0 -16 -14 -16 -19 0
-32 -28 -37 -80 0 -9 -5 -21 -9 -29 -5 -8 -3 -16 5 -22 11 -6 11 -9 -2 -14
-23 -9 -13 -75 12 -75 12 0 19 -7 19 -20 0 -27 19 -25 51 6 24 23 29 24 48 12
18 -11 23 -10 37 10 18 26 34 20 34 -13 0 -13 5 -27 10 -30 13 -8 9 -77 -5
-87 -6 -5 -4 -12 5 -18 13 -9 13 -12 -3 -21 -21 -12 -22 -29 -2 -29 8 0 15 -4
15 -10 0 -5 -4 -10 -9 -10 -5 0 -17 -14 -25 -32 -15 -30 -15 -32 4 -50 13 -12
28 -17 40 -13 16 5 20 2 20 -19 0 -34 7 -33 54 9 26 23 46 33 58 29 12 -3 26
4 42 23 l25 28 7 -42 c7 -48 35 -83 65 -83 25 0 59 -17 59 -30 0 -6 -19 -7
-44 -4 -41 6 -48 4 -75 -24 -18 -17 -31 -40 -30 -54 0 -22 1 -22 8 -3 15 36
49 58 90 58 50 0 56 -4 86 -65 14 -29 40 -70 56 -92 33 -45 26 -55 -20 -32
-53 28 -92 21 -136 -24 -47 -48 -41 -61 11 -25 31 21 46 25 74 20 19 -3 55 -9
80 -12 39 -5 53 -14 100 -63 30 -31 66 -64 79 -73 14 -9 22 -19 19 -22 -5 -5
-41 6 -133 39 -14 5 -11 0 10 -18 31 -27 110 -56 152 -56 12 0 45 -13 71 -30
75 -46 172 -87 264 -112 70 -19 106 -23 233 -22 185 1 257 18 430 103 66 33
138 62 159 66 44 7 130 48 142 67 5 8 2 9 -12 3 -53 -23 -127 -45 -132 -40 -3
3 5 13 19 22 13 9 49 43 79 74 47 48 62 57 100 62 25 3 61 9 80 12 28 5 43 1
74 -20 44 -30 56 -27 29 8 -42 58 -98 70 -163 37 -47 -24 -52 -12 -14 33 14
16 39 56 55 89 19 38 39 62 55 68 39 15 86 -1 112 -40 21 -32 22 -32 22 -8 0
13 -12 35 -26 49 -20 19 -36 24 -75 23 -27 0 -49 2 -49 6 0 14 26 30 50 30 35
0 70 38 70 78 0 41 12 47 40 17 14 -15 30 -23 40 -20 10 3 32 -9 56 -30 46
-41 52 -42 56 -12 2 14 9 21 20 19 10 -2 28 6 40 17 20 19 20 22 5 39 -9 10
-17 24 -17 30 0 6 -8 13 -17 15 -15 4 -15 6 4 12 18 6 21 11 13 25 -6 10 -7
26 -4 34 4 9 1 16 -6 16 -10 0 -10 3 -1 14 10 11 8 16 -5 24 -17 9 -17 11 -1
36 9 14 17 37 17 51 0 31 14 32 35 3 13 -20 18 -21 36 -10 18 11 25 9 57 -20
l37 -32 3 27 c2 19 9 27 23 27 15 0 19 7 19 34 0 19 -5 38 -11 42 -8 4 -7 9 2
14 10 7 10 12 1 23 -7 8 -12 19 -10 23 1 5 -1 26 -5 47 -6 28 -13 37 -29 37
-14 0 -18 5 -14 16 6 16 -15 44 -33 44 -6 0 -11 7 -11 16 0 8 -5 12 -11 8 -6
-3 -14 -1 -18 5 -4 6 -31 13 -60 15 -47 2 -52 1 -58 -22 -3 -14 -1 -27 6 -32
10 -5 9 -9 -2 -13 -13 -5 -13 -13 -5 -46 13 -52 33 -55 25 -3 -13 80 15 101
89 66 33 -16 49 -42 19 -30 -8 3 -15 1 -15 -4 0 -6 7 -10 15 -10 9 0 18 -7 21
-15 4 -8 14 -15 24 -15 26 0 36 -47 15 -70 -15 -17 -15 -19 3 -24 24 -8 38
-36 18 -36 -9 0 -12 -7 -9 -20 4 -14 0 -20 -11 -20 -10 0 -14 -5 -10 -11 4 -7
3 -10 -2 -7 -43 20 -64 33 -64 40 0 4 -8 3 -18 -3 -14 -9 -35 -8 -88 4 -41 10
-70 12 -72 7 -6 -16 -52 -12 -52 4 0 9 -11 13 -32 12 -18 -1 -45 1 -60 5 -21
6 -28 4 -28 -7 0 -8 -4 -14 -9 -14 -5 0 -7 -9 -4 -21 5 -16 11 -19 32 -14 14
4 28 11 29 16 5 12 59 12 66 0 3 -5 22 -9 42 -9 20 0 40 -6 45 -13 5 -8 9 -10
9 -4 0 5 5 4 11 -2 6 -6 13 -41 14 -78 4 -60 1 -70 -18 -86 l-22 -19 22 -6
c22 -6 40 -47 22 -52 -6 -3 -6 -8 0 -16 7 -8 2 -18 -13 -33 l-23 -22 -22 29
c-12 17 -27 30 -33 30 -6 0 -17 8 -24 18 -12 15 -15 15 -24 2 -5 -8 -17 -15
-27 -16 -53 -2 -82 -17 -93 -47 -8 -23 -7 -33 2 -39 8 -5 1 -8 -18 -8 -34 0
-64 26 -64 55 0 17 1 17 18 2 15 -13 19 -14 36 -1 11 8 15 14 9 14 -6 0 -9 8
-6 19 7 27 -44 36 -52 10 -9 -27 -25 -23 -25 6 0 16 6 25 15 25 13 0 13 3 3
20 -11 17 -10 22 2 30 12 7 12 12 2 22 -9 9 -12 9 -12 -1 0 -8 -6 -11 -15 -7
-8 3 -15 1 -15 -4 0 -6 -9 -5 -20 2 -11 7 -19 19 -17 27 1 8 -4 16 -10 18 -7
3 -13 0 -13 -6 0 -6 -9 -11 -20 -11 -11 0 -20 -4 -20 -10 0 -5 9 -10 20 -10
13 0 20 -7 20 -20 0 -16 7 -20 30 -20 40 0 46 -18 31 -86 -12 -50 -15 -54 -34
-47 -35 12 -77 7 -95 -11 -16 -16 -15 -17 9 -8 28 11 76 5 85 -10 4 -6 -8 -43
-27 -82 -39 -84 -40 -85 -46 -68 -6 16 -44 52 -55 52 -4 0 1 -17 12 -37 36
-67 35 -68 -126 -236 -51 -53 -99 -97 -106 -97 -6 0 2 15 19 33 17 17 36 42
42 54 14 27 15 113 1 113 -5 0 -10 -15 -10 -33 0 -32 -42 -104 -69 -122 -6 -3
-17 -21 -25 -39 -15 -35 -84 -74 -211 -118 -63 -22 -83 -38 -47 -38 47 0 221
72 277 114 26 20 33 22 48 11 16 -12 13 -16 -36 -44 -29 -16 -102 -47 -163
-68 l-109 -38 -165 1 c-149 0 -173 3 -245 26 -80 26 -122 44 -204 87 -41 22
-43 24 -27 37 16 11 23 10 50 -11 58 -44 276 -132 291 -117 13 13 1 22 -62 43
-128 42 -192 77 -212 117 -10 20 -29 46 -41 57 -27 24 -50 74 -50 110 0 14 -4
25 -10 25 -5 0 -10 -23 -10 -52 0 -46 5 -57 41 -100 70 -84 22 -52 -75 50
-161 167 -162 168 -126 235 11 20 16 37 11 37 -11 0 -37 -25 -50 -48 -11 -20
-9 -24 -50 64 -19 39 -31 76 -27 82 9 15 57 21 85 10 25 -9 25 -8 9 8 -18 18
-71 24 -99 11 -12 -6 -18 3 -29 45 -12 48 -14 50 -22 28 -9 -24 -10 -24 -20
-5 -6 11 -12 21 -13 23 -7 9 -35 -13 -31 -25 4 -8 -4 -17 -20 -23 -32 -13 -37
-12 -29 0 3 6 -5 10 -19 10 -14 0 -27 4 -31 10 -3 5 -13 6 -22 3 -10 -4 -21 1
-30 13 -13 18 -15 18 -27 2 -7 -10 -18 -18 -24 -18 -6 0 -21 -14 -34 -30 -27
-37 -30 -37 -45 -3 -10 20 -10 30 -1 40 6 8 7 13 2 11 -5 -2 -10 0 -11 5 -7
20 -1 36 17 42 26 8 26 22 0 30 -19 6 -20 13 -16 73 2 37 5 73 5 81 1 7 7 11
16 7 8 -3 15 -1 15 4 0 6 14 10 31 10 18 0 49 5 71 12 29 8 41 9 46 1 4 -6 19
-14 33 -18 20 -5 27 -2 31 12 3 10 0 23 -6 29 -14 13 -56 24 -56 15 0 -4 -16
-6 -35 -6 -23 1 -35 -3 -35 -12 0 -7 -11 -13 -25 -13 -37 0 -31 28 10 46 19 8
40 13 47 12 7 -2 12 3 11 9 -2 7 6 13 18 13 16 0 19 4 14 20 -4 14 -1 22 10
26 12 5 14 14 10 35 -6 26 -4 29 19 29 14 0 40 -13 58 -29 30 -27 33 -34 33
-89 0 -47 -3 -58 -14 -54 -21 8 -51 -38 -50 -78 0 -19 3 -28 6 -20 3 8 12 19
19 23 8 4 14 15 14 22 0 21 41 19 79 -3 29 -16 42 -42 21 -42 -11 0 -50 -40
-50 -53 0 -5 14 3 31 17 17 14 39 26 50 26 24 0 25 -28 2 -46 -10 -7 -18 -21
-18 -31 0 -21 -53 -32 -65 -13 -5 8 -11 6 -20 -5 -10 -12 -10 -15 4 -15 19 0
21 -21 4 -38 -9 -9 -8 -12 4 -12 8 0 21 7 28 15 7 8 26 15 42 15 22 0 28 4 26
17 -2 12 4 19 20 21 27 4 29 22 2 22 -11 0 -20 5 -20 10 0 6 9 10 20 10 23 0
44 41 27 51 -5 4 -7 14 -4 23 8 19 3 20 -23 4 -10 -7 -23 -8 -27 -4 -4 5 -2
11 5 13 9 3 4 13 -14 28 -15 13 -31 22 -36 19 -4 -3 -8 0 -8 6 0 7 -7 9 -16 6
-14 -6 -16 0 -12 39 7 57 37 84 95 85 35 0 45 -5 67 -32 19 -25 26 -29 26 -15
0 10 -11 29 -25 42 -32 33 -105 35 -135 5 -20 -20 -20 -20 -20 1 0 13 11 25
33 34 47 19 60 40 59 85 -1 30 2 40 13 40 8 0 15 -5 15 -11 0 -7 11 -9 31 -5
23 4 42 -1 73 -19 53 -31 56 -31 56 0 0 20 5 25 25 25 16 0 25 6 25 15 0 8 5
15 10 15 22 0 8 29 -25 51 -32 22 -33 25 -17 37 16 12 16 14 -1 23 -14 8 -15
14 -7 24 8 10 8 16 -2 22 -7 4 -13 13 -14 18 -1 6 -5 20 -9 33 -6 19 -13 22
-33 17 -22 -5 -24 -4 -18 20 5 18 2 25 -9 25 -8 0 -15 5 -15 11 0 5 -5 7 -11
4 -6 -4 -17 1 -24 11 -9 12 -14 14 -15 6 0 -13 -20 -7 -20 6 0 13 44 12 52 -1
5 -7 7 41 6 105 -2 108 -3 116 -18 103 -21 -19 -36 -19 -20 0 11 13 8 13 -21
3 -19 -6 -37 -16 -41 -22 -5 -7 -8 -7 -8 2 0 7 10 16 23 21 12 5 29 19 37 31
8 13 24 33 36 46 l21 24 12 -26 c7 -17 8 -31 1 -44 -13 -24 -13 -100 0 -100 6
0 11 19 12 43 l1 42 4 -37 c2 -21 8 -38 13 -38 17 0 23 52 11 99 -15 56 -15
60 0 139 11 59 11 64 -10 85 -18 20 -19 26 -8 41 11 15 17 16 35 7 33 -17 40
-13 12 9 -32 25 -88 27 -97 3z m-201 -82 c3 -21 1 -28 -9 -24 -7 3 -13 9 -13
13 0 5 -3 15 -6 24 -4 10 -1 16 9 16 9 0 16 -12 19 -29z m214 -7 c-5 -14 -4
-15 8 -5 11 9 15 7 18 -14 4 -17 1 -25 -8 -25 -17 0 -18 -17 -1 -23 7 -3 4 -6
-7 -6 -14 -1 -17 4 -13 21 4 12 1 28 -4 35 -6 6 -8 17 -4 23 10 16 18 12 11
-6z m-236 -56 c-1 -31 -2 -32 -15 -15 -7 11 -11 25 -8 33 10 25 23 15 23 -18z
m28 -82 c3 -12 -1 -17 -10 -14 -7 3 -15 13 -16 22 -3 12 1 17 10 14 7 -3 15
-13 16 -22z m-38 -7 c0 -11 -4 -17 -10 -14 -5 3 -10 13 -10 21 0 8 5 14 10 14
6 0 10 -9 10 -21z m70 -10 c0 -15 -5 -19 -15 -15 -16 6 -18 -5 -9 -42 7 -23 7
-23 21 -2 16 22 43 27 43 8 0 -21 -61 -50 -117 -55 -46 -5 -53 -3 -53 12 0 14
7 16 43 14 35 -3 43 -1 43 13 0 9 -3 15 -7 12 -9 -5 -17 18 -12 34 3 6 10 12
18 12 7 0 18 7 25 15 17 20 20 19 20 -6z m-80 -54 c0 -8 -7 -15 -15 -15 -16 0
-20 12 -8 23 11 12 23 8 23 -8z m220 -198 c0 -11 -5 -17 -12 -15 -7 3 -19 -1
-26 -9 -8 -7 -18 -11 -23 -7 -6 3 -15 1 -22 -4 -8 -7 -17 -5 -27 6 -13 14 -12
15 3 9 13 -5 17 -1 17 14 0 11 9 37 20 59 11 22 20 50 20 63 0 49 14 35 32
-30 9 -38 18 -76 18 -86z m-127 -391 c-4 -6 1 -5 10 3 15 12 17 11 17 -3 0 -9
-4 -16 -10 -16 -5 0 -10 -9 -10 -20 0 -14 5 -18 18 -14 9 2 2 -3 -17 -13 -33
-17 -33 -17 -52 6 -22 27 -26 49 -5 32 16 -13 32 2 21 19 -9 15 4 30 20 24 8
-4 12 -11 8 -18z m-43 -589 c0 -27 -31 -57 -60 -57 -16 0 -32 4 -35 10 -3 5 0
7 8 4 11 -4 13 1 10 20 -6 28 13 36 35 14 9 -9 13 -7 18 5 7 20 24 23 24 4z
m31 -70 c-6 -6 -11 -25 -10 -41 0 -29 1 -29 9 -8 5 12 11 22 14 22 2 0 16 -26
31 -57 14 -32 32 -64 39 -73 8 -8 16 -35 18 -60 3 -25 8 -54 13 -65 6 -16 5
-18 -5 -8 -16 15 -52 77 -110 190 l-42 82 18 39 c19 39 19 39 28 15 5 -16 4
-29 -3 -36z m1695 -69 c-49 -106 -158 -282 -131 -213 4 11 10 40 12 65 3 25
11 52 18 60 6 8 25 43 41 78 l29 63 12 -28 c11 -26 12 -27 13 -5 0 13 -5 32
-11 43 -5 11 -7 29 -3 41 6 20 8 19 25 -15 19 -36 19 -36 -5 -89z m-1523 -210
c24 -37 138 -147 158 -153 30 -10 22 -25 -13 -25 -27 0 -46 13 -103 68 -57 55
-70 73 -71 100 -1 38 8 41 29 10z m1361 -10 c6 -25 -2 -36 -66 -98 -60 -58
-78 -70 -105 -70 -38 0 -43 12 -10 27 12 6 56 46 97 90 41 44 75 79 76 79 1
-1 4 -13 8 -28z"/>
<path d="M1457 2240 c-16 -19 -16 -20 14 -20 28 0 30 2 18 18 -7 9 -14 18 -14
19 -1 1 -9 -6 -18 -17z"/>
<path d="M2241 2236 c-16 -40 -11 -118 9 -123 13 -4 13 -3 0 6 -10 7 -11 11
-2 11 7 0 12 14 11 38 0 30 -2 33 -9 17 -8 -19 -9 -19 -9 2 -1 12 4 23 10 25
6 2 9 15 7 28 l-4 25 -13 -29z"/>
<path d="M1306 2235 c-3 -8 -18 -15 -33 -15 -21 0 -25 3 -13 10 12 7 10 9 -7
7 -12 0 -20 -3 -18 -6 3 -2 1 -9 -4 -15 -10 -12 174 -4 186 8 3 3 1 6 -6 6 -7
0 -9 5 -6 10 3 6 -1 10 -10 10 -9 0 -14 -4 -11 -9 3 -5 -1 -11 -9 -15 -18 -6
-45 2 -45 15 0 15 -17 10 -24 -6z"/>
<path d="M2173 2173 c0 -21 2 -30 4 -20 5 19 23 24 23 5 0 -6 2 -9 5 -6 7 7
-16 58 -25 58 -4 0 -7 -17 -7 -37z"/>
<path d="M1258 2193 c12 -2 30 -2 40 0 9 3 -1 5 -23 4 -22 0 -30 -2 -17 -4z"/>
<path d="M1597 2193 c18 -2 50 -2 70 0 21 2 7 4 -32 4 -38 0 -55 -2 -38 -4z"/>
<path d="M1307 2160 c-5 -18 -1 -20 32 -18 31 1 37 5 33 20 -7 26 -58 25 -65
-2z"/>
<path d="M1445 2170 c-4 -6 -11 -8 -16 -4 -6 3 -5 -3 3 -15 10 -17 23 -21 62
-21 27 0 46 3 43 7 -4 3 -25 6 -46 5 -22 -1 -42 2 -45 7 -4 5 3 7 14 4 30 -8
56 5 41 20 -9 9 -14 9 -21 -3 -7 -10 -10 -11 -10 -2 0 15 -16 16 -25 2z"/>
<path d="M1583 2159 c4 -15 2 -19 -9 -15 -9 3 -12 1 -9 -4 3 -6 17 -7 30 -4
12 3 26 1 29 -5 4 -6 26 -10 49 -10 27 1 33 3 16 6 -20 3 -26 9 -24 26 1 12 0
14 -2 5 -6 -24 -24 -23 -30 2 -4 13 -14 20 -30 20 -21 0 -24 -4 -20 -21z"/>
<path d="M1378 2113 c12 -2 30 -2 40 0 9 3 -1 5 -23 4 -22 0 -30 -2 -17 -4z"/>
<path d="M1473 2113 c20 -2 54 -2 75 0 20 2 3 4 -38 4 -41 0 -58 -2 -37 -4z"/>
<path d="M652 1833 c-1 -7 -9 -10 -18 -6 -14 5 -15 1 -9 -25 3 -17 1 -40 -5
-51 -9 -17 -8 -21 4 -21 23 0 38 36 33 78 -2 20 -4 32 -5 25z"/>
<path d="M2415 1660 c-10 -11 -26 -22 -35 -25 -18 -6 -41 -54 -39 -84 0 -9 6
0 13 19 10 26 20 36 41 40 16 3 28 8 27 13 -4 15 -1 16 31 5 38 -13 67 -36 67
-54 0 -6 -20 -33 -45 -60 -25 -26 -42 -50 -39 -53 3 -3 15 6 26 22 11 15 26
27 34 27 8 0 14 6 14 14 0 8 10 16 23 18 12 2 22 8 22 13 0 6 4 15 7 21 8 13
-23 54 -41 54 -6 0 -11 6 -11 13 0 9 -11 13 -30 12 -19 -1 -30 3 -30 12 0 19
-14 16 -35 -7z"/>
<path d="M684 1520 c3 -8 9 -23 12 -32 4 -10 14 -18 24 -18 10 0 26 -8 35 -17
16 -15 18 -15 26 -1 5 9 23 19 40 23 17 4 28 9 25 12 -2 3 -21 0 -41 -7 -41
-14 -75 -3 -108 35 -11 11 -16 14 -13 5z"/>
<path d="M2208 1474 c17 -10 32 -22 32 -26 0 -5 10 -2 22 6 12 9 30 16 40 16
10 0 18 5 18 10 0 14 -37 13 -46 -1 -6 -10 -32 -8 -79 6 -11 3 -5 -2 13 -11z"/>
<path d="M1288 1311 c4 -46 3 -48 -19 -47 -32 1 -38 33 -7 38 21 4 21 5 5 13
-25 11 -51 -16 -42 -44 5 -17 14 -21 49 -21 41 0 43 1 38 26 -4 20 -1 25 9 22
8 -3 13 -15 12 -27 -2 -12 3 -21 11 -21 10 0 12 8 7 33 -5 22 -13 32 -24 31
-12 -1 -17 6 -17 22 0 14 -6 24 -14 24 -10 0 -12 -12 -8 -49z"/>
<path d="M1477 1305 c0 -30 4 -55 7 -55 30 0 39 2 29 7 -7 2 -13 12 -13 20 0
9 6 13 15 9 10 -4 15 1 15 14 0 13 -5 18 -15 14 -10 -4 -15 0 -15 11 0 13 6
16 25 11 18 -5 25 -2 25 9 0 11 -11 15 -38 15 l-37 0 2 -55z"/>
<path d="M1625 1305 c0 -37 4 -55 13 -55 8 0 12 18 12 55 0 37 -4 55 -12 55
-9 0 -13 -18 -13 -55z"/>
<path d="M1728 1309 c5 -49 4 -51 -19 -47 -32 4 -37 35 -7 40 20 4 21 5 5 12
-23 11 -49 -11 -45 -38 2 -17 11 -22 46 -24 l42 -3 0 55 c0 40 -4 56 -14 56
-10 0 -12 -12 -8 -51z"/>
<path d="M1791 1337 c-6 -14 -15 -28 -20 -32 -34 -20 7 -73 42 -54 22 13 22
55 1 63 -13 5 -14 9 -5 20 8 10 9 16 1 21 -5 3 -14 -5 -19 -18z m19 -58 c0
-20 -15 -26 -25 -9 -9 15 3 43 15 35 5 -3 10 -15 10 -26z"/>
<path d="M980 1302 c0 -53 5 -63 26 -55 11 4 12 8 3 19 -7 8 -8 18 -4 22 4 4
14 -3 22 -15 14 -21 23 -23 103 -23 l87 0 -6 33 c-6 27 -12 32 -39 35 -31 3
-32 2 -26 -27 4 -18 2 -31 -3 -31 -6 0 -13 14 -17 31 -4 21 -11 30 -23 27 -9
-2 -18 -9 -21 -16 -2 -7 2 -10 12 -6 26 10 18 -10 -9 -22 -32 -15 -47 2 -39
45 6 30 6 31 -30 31 l-36 0 0 -48z m50 23 c0 -8 -7 -15 -15 -15 -8 0 -15 7
-15 15 0 8 7 15 15 15 8 0 15 -7 15 -15z m160 -45 c0 -11 -4 -20 -10 -20 -5 0
-10 9 -10 20 0 11 5 20 10 20 6 0 10 -9 10 -20z"/>
<path d="M1377 1314 c-4 -4 -7 -20 -7 -36 0 -25 4 -28 30 -28 34 0 49 23 33
49 -11 17 -44 26 -56 15z m33 -34 c0 -21 -15 -27 -25 -10 -7 12 2 30 16 30 5
0 9 -9 9 -20z"/>
<path d="M1555 1304 c-9 -9 -14 -23 -11 -31 3 -8 6 -17 6 -19 0 -2 13 -4 29
-4 33 0 46 22 31 51 -13 23 -33 24 -55 3z m40 -24 c0 -7 -6 -15 -12 -17 -8 -3
-13 4 -13 17 0 13 5 20 13 18 6 -3 12 -11 12 -18z"/>
<path d="M1849 1318 c0 -2 -1 -18 -2 -36 -2 -23 2 -32 14 -32 12 0 15 7 11 25
-3 18 0 25 12 25 11 0 16 -9 16 -30 0 -20 4 -28 13 -24 8 3 11 17 9 39 -4 32
-7 35 -38 35 -19 0 -34 -1 -35 -2z"/>
<path d="M1947 1305 c-9 -8 -13 -24 -10 -35 5 -17 13 -19 67 -17 58 2 61 3 64
29 2 19 -2 28 -18 33 -11 4 -27 2 -35 -5 -9 -7 -15 -8 -20 0 -9 14 -31 12 -48
-5z m53 -24 c0 -24 -34 -22 -38 2 -2 12 3 17 17 17 14 0 21 -6 21 -19z m48 2
c-4 -22 -22 -20 -26 1 -2 10 3 16 13 16 10 0 15 -7 13 -17z"/>
<path d="M2761 1183 c-1 -7 -7 -10 -15 -7 -8 3 -17 0 -22 -7 -5 -9 -2 -10 9
-6 8 3 21 0 27 -8 17 -20 45 -24 71 -8 23 13 23 13 -15 11 -31 -2 -41 1 -47
17 -4 11 -8 15 -8 8z"/>
<path d="M245 1160 c-11 -4 -33 -6 -50 -3 -28 4 -28 3 -10 -9 29 -18 61 -17
74 4 6 10 10 18 9 17 -2 0 -12 -4 -23 -9z"/>
<path d="M1220 1115 c0 -12 6 -15 20 -10 17 5 20 2 20 -27 0 -19 -5 -39 -12
-46 -9 -9 -7 -12 13 -12 23 0 24 3 20 46 -3 44 -2 46 19 39 16 -5 21 -3 18 6
-3 9 -23 15 -51 17 -38 3 -47 0 -47 -13z"/>
<path d="M1479 1113 c7 -13 4 -20 -12 -28 -14 -7 -22 -20 -22 -35 0 -23 4 -25
51 -28 51 -3 52 -3 50 25 -3 36 -20 42 -24 8 -6 -45 -22 -26 -22 25 0 38 -4
50 -15 50 -12 0 -14 -4 -6 -17z m9 -60 c-5 -25 -28 -28 -28 -4 0 12 6 21 16
21 9 0 14 -7 12 -17z"/>
<path d="M1520 1110 c0 -5 7 -10 15 -10 8 0 15 5 15 10 0 6 -7 10 -15 10 -8 0
-15 -4 -15 -10z"/>
<path d="M1635 1110 c-4 -6 7 -10 24 -10 17 0 31 5 31 10 0 6 -11 10 -24 10
-14 0 -28 -4 -31 -10z"/>
<path d="M1329 1088 c0 -2 -1 -18 -2 -36 -2 -23 2 -32 14 -32 12 0 15 7 11 25
-2 15 0 25 7 25 6 0 11 5 11 10 0 8 -38 15 -41 8z"/>
<path d="M1387 1084 c-12 -13 -7 -24 8 -18 8 4 15 2 15 -4 0 -5 -9 -12 -21
-15 -29 -8 -14 -27 20 -27 27 0 28 2 22 32 -6 31 -29 47 -44 32z"/>
<path d="M1572 1078 c-16 -16 -15 -43 3 -58 8 -7 12 -16 9 -21 -3 -5 2 -9 10
-9 9 0 16 4 16 9 0 5 3 16 6 24 3 10 -1 15 -12 14 -10 -1 -20 6 -22 16 -2 12
3 17 18 17 12 0 18 5 15 10 -8 14 -28 13 -43 -2z"/>
<path d="M1643 1083 c-7 -2 -13 -18 -13 -34 0 -25 4 -29 29 -29 16 0 31 6 33
12 3 9 9 8 22 -4 16 -17 46 -15 46 3 0 4 -6 6 -14 3 -8 -3 -17 -1 -21 5 -3 7
2 11 14 11 25 0 28 28 5 37 -10 4 -22 -1 -30 -12 -12 -16 -14 -16 -29 -1 -17
17 -22 18 -42 9z m32 -33 c0 -7 -6 -15 -12 -17 -8 -3 -13 4 -13 17 0 13 5 20
13 18 6 -3 12 -11 12 -18z"/>
<path d="M1774 1075 c-4 -9 1 -22 12 -31 17 -14 17 -15 2 -10 -19 6 -25 -8 -9
-18 21 -14 42 7 39 38 -3 34 -34 49 -44 21z"/>
<path d="M2462 955 c6 -14 13 -24 14 -22 6 6 -9 47 -17 47 -5 0 -3 -11 3 -25z"/>
<path d="M1085 910 c0 -48 3 -60 15 -58 9 2 14 12 12 24 -2 14 6 24 23 32 30
14 33 37 6 52 -45 24 -56 14 -56 -50z m53 22 c2 -7 -3 -12 -12 -12 -9 0 -16 7
-16 16 0 17 22 14 28 -4z"/>
<path d="M1866 945 c5 -20 3 -25 -14 -25 -16 0 -32 -17 -32 -35 0 -14 33 -32
52 -28 21 4 23 9 20 59 -3 38 -8 54 -18 54 -10 0 -13 -7 -8 -25z m4 -55 c0
-21 -15 -27 -25 -10 -7 12 2 30 16 30 5 0 9 -9 9 -20z"/>
<path d="M1285 930 c-4 -6 -16 -10 -28 -8 -18 3 -22 -2 -22 -29 0 -18 5 -33
11 -33 6 0 10 10 10 21 -1 12 5 24 12 26 7 3 12 -5 12 -20 0 -25 25 -44 35
-27 4 6 1 10 -4 10 -6 0 -11 9 -11 20 0 11 7 20 15 20 9 0 15 -9 15 -24 0 -24
16 -36 41 -33 16 3 19 9 19 42 0 14 -4 25 -10 25 -5 0 -10 -11 -10 -25 0 -34
-18 -32 -22 3 -2 16 -8 26 -17 24 -7 -1 -19 2 -26 8 -10 8 -15 8 -20 0z"/>
<path d="M500 919 c0 -24 -33 -49 -66 -50 -28 0 -28 -1 -6 -10 15 -6 30 -5 43
2 11 5 29 7 39 4 15 -5 20 -2 20 12 0 25 -29 66 -30 42z"/>
<path d="M1167 919 c-21 -12 -22 -55 -1 -63 22 -9 54 11 54 34 0 25 -30 41
-53 29z m31 -32 c2 -10 -3 -17 -12 -17 -10 0 -16 9 -16 21 0 24 23 21 28 -4z"/>
<path d="M1633 923 c-19 -7 -16 -30 5 -43 16 -11 16 -11 0 -6 -19 6 -25 -8 -9
-18 14 -9 41 4 41 20 0 7 -8 18 -17 24 -17 11 -17 11 0 6 9 -3 17 -1 17 3 0
11 -22 19 -37 14z"/>
<path d="M1749 920 c-11 -7 -10 -12 5 -29 18 -19 18 -20 -3 -18 -15 1 -21 8
-21 24 0 18 -6 23 -25 23 -14 0 -25 -5 -25 -11 0 -6 7 -9 15 -5 20 7 19 -4 -2
-19 -33 -24 -1 -34 90 -26 14 2 7 30 -10 41 -17 11 -17 11 0 6 9 -3 17 -1 17
3 0 14 -25 20 -41 11z"/>
<path d="M1916 914 c-9 -8 -16 -19 -16 -24 0 -11 29 -40 40 -40 20 0 18 18 -3
25 -22 6 -21 7 22 21 11 3 11 7 1 19 -16 19 -25 19 -44 -1z"/>
<path d="M2502 917 c-10 -12 -10 -16 0 -20 10 -4 10 -6 1 -6 -7 -1 -13 -8 -13
-17 0 -10 6 -13 19 -9 10 3 30 0 44 -6 18 -8 30 -8 43 0 17 9 15 10 -12 11
-30 0 -57 20 -66 49 -3 11 -6 10 -16 -2z"/>
<path d="M1410 893 c0 -16 -3 -38 -6 -50 -5 -19 -2 -23 19 -23 13 0 31 7 38
16 11 13 10 17 -4 25 -14 8 -15 13 -4 29 16 27 27 25 27 -5 0 -24 4 -27 35
-27 29 0 31 2 27 32 -2 17 -10 30 -17 30 -8 0 -10 -9 -7 -25 2 -15 0 -25 -7
-25 -6 0 -11 11 -11 25 0 23 -4 25 -45 25 -42 0 -45 -2 -45 -27z"/>
<path d="M1557 900 c-8 -30 32 -65 47 -41 3 5 -4 12 -17 16 l-22 8 23 4 c30 6
29 33 -2 33 -15 0 -26 -7 -29 -20z"/>
<path d="M1275 745 c0 -44 3 -55 16 -55 12 0 15 7 11 25 -4 21 -1 25 17 22 29
-4 36 -14 21 -32 -10 -12 -9 -15 6 -15 16 0 19 8 21 55 1 42 -1 55 -13 55 -10
0 -13 -7 -8 -25 5 -22 3 -25 -21 -25 -24 0 -26 3 -21 25 5 20 3 25 -11 25 -15
0 -18 -9 -18 -55z"/>
<path d="M1500 780 c0 -15 -7 -20 -25 -20 -21 0 -25 -4 -23 -22 2 -13 -1 -24
-7 -26 -5 -1 -11 9 -13 23 -2 14 -7 25 -12 25 -17 0 -40 -12 -40 -22 0 -6 7
-8 15 -4 8 3 15 1 15 -4 0 -6 -7 -10 -15 -10 -8 0 -15 -7 -15 -15 0 -12 13
-15 57 -15 44 0 54 3 45 12 -17 17 -15 26 8 38 18 10 19 8 13 -20 -6 -31 -5
-31 28 -28 29 2 34 7 34 28 0 16 -8 28 -22 35 -13 5 -23 18 -23 27 0 10 -4 18
-10 18 -5 0 -10 -9 -10 -20z m50 -61 c0 -24 -23 -21 -28 4 -2 10 3 17 12 17
10 0 16 -9 16 -21z"/>
<path d="M1576 733 c10 -42 11 -43 71 -43 49 0 54 2 43 15 -10 12 -10 19 -2
27 17 17 26 2 27 -40 0 -33 3 -37 25 -37 18 0 26 6 28 23 2 15 -2 22 -12 22
-13 0 -12 4 4 20 29 29 19 37 -45 38 -54 0 -55 0 -53 -25 2 -14 -3 -28 -9 -30
-9 -3 -13 6 -13 26 0 17 -4 31 -10 31 -5 0 -10 -14 -10 -31 0 -17 -4 -28 -10
-24 -5 3 -10 17 -10 31 0 15 -6 24 -15 24 -12 0 -14 -7 -9 -27z"/>
<path d="M1533 663 c-28 -19 -29 -28 -2 -56 15 -17 19 -18 14 -4 -4 9 -3 17 3
17 22 0 20 -30 -3 -48 -13 -11 -31 -38 -40 -60 -10 -23 -20 -40 -23 -39 -4 1
-8 -2 -10 -8 -2 -5 2 -11 8 -13 6 -2 14 5 17 17 5 20 6 21 20 4 13 -17 13 -17
4 3 -5 11 -6 26 -1 34 5 8 7 17 4 21 -2 4 0 10 5 13 5 4 27 -14 49 -39 27 -30
42 -41 46 -33 3 7 4 -4 1 -24 -4 -23 -2 -38 5 -38 5 0 10 10 11 23 0 21 1 21
9 2 12 -28 12 -67 0 -60 -5 3 -10 1 -10 -4 0 -6 4 -11 10 -11 5 0 7 -7 3 -15
-3 -9 3 -23 13 -31 11 -9 13 -13 7 -9 -7 3 -13 1 -13 -5 0 -6 -5 -8 -10 -5 -6
4 -8 11 -5 16 4 5 2 9 -3 9 -17 0 -22 -13 -9 -28 10 -14 9 -15 -8 -8 -18 8
-40 12 -69 15 -5 1 -4 7 1 14 15 19 23 47 14 47 -4 0 -13 -12 -20 -26 -6 -15
-14 -25 -16 -22 -6 5 29 74 48 97 22 26 32 45 19 37 -7 -4 -12 -2 -12 5 0 7
-3 9 -7 6 -3 -4 -13 -1 -21 6 -12 9 -14 9 -9 0 5 -7 0 -16 -11 -22 -46 -25
-64 -92 -19 -76 21 9 31 37 15 47 -12 7 -4 12 15 9 4 0 7 4 7 9 0 6 6 10 14
10 11 0 8 -11 -11 -40 -15 -22 -30 -40 -34 -40 -5 0 -13 -9 -19 -21 -9 -16 -8
-26 4 -43 11 -18 28 -25 75 -30 34 -4 61 -10 61 -14 0 -4 4 -24 9 -44 12 -50
-1 -48 -24 2 -10 22 -20 38 -22 36 -3 -2 3 -18 11 -35 10 -18 14 -43 11 -61
-6 -34 -3 -36 29 -15 21 14 23 20 14 48 -28 89 -28 89 -13 83 8 -3 27 5 42 18
l27 23 -31 16 c-29 15 -30 19 -26 60 3 27 0 55 -9 73 -8 16 -13 35 -12 42 1 6
2 23 3 37 0 14 6 25 12 25 7 0 10 -12 7 -30 -3 -16 -1 -30 4 -30 14 0 9 57 -7
70 -8 7 -15 9 -15 5 0 -4 -16 13 -35 39 -20 25 -42 46 -50 46 -7 0 -15 4 -17
9 -1 5 -13 2 -25 -6z m95 -79 c-10 -10 -36 8 -31 22 4 11 7 11 20 -2 9 -8 13
-17 11 -20z m-44 -11 c8 -8 13 -9 41 -12 8 0 15 -10 15 -21 0 -23 -15 -26 -27
-6 -4 8 -17 14 -28 13 -11 -1 -21 5 -23 16 -4 17 9 23 22 10z"/>
<path d="M1368 623 c-20 -23 -32 -63 -20 -63 6 0 12 6 15 13 2 6 8 8 13 4 5
-5 0 -15 -11 -22 -31 -22 -55 -47 -55 -59 0 -6 10 0 21 14 20 24 20 24 14 3
-4 -14 -2 -23 5 -23 6 0 9 -4 5 -10 -3 -5 -11 -8 -18 -6 -7 1 -9 1 -4 -1 9 -6
-1 -23 -13 -23 -5 0 -11 8 -13 18 -4 16 -5 16 -6 -1 -1 -23 25 -33 44 -17 13
11 15 7 15 -27 0 -25 8 -50 20 -66 24 -30 25 -55 5 -143 -9 -36 -15 -68 -13
-69 2 -1 14 -6 27 -10 22 -7 23 -5 16 24 -5 22 -2 39 9 56 18 27 21 71 6 80
-6 4 -8 11 -5 16 13 20 34 7 48 -28 9 -21 16 -32 16 -24 1 8 -10 34 -24 58
-22 36 -23 43 -9 43 11 0 14 5 9 18 -25 59 -28 71 -20 88 4 10 7 22 7 27 -1 4
1 6 6 6 32 -5 33 4 4 34 -21 21 -30 39 -27 50 9 22 -12 57 -34 57 -10 0 -25
-8 -33 -17z m52 -102 c0 -80 -6 -102 -26 -94 -18 7 -18 62 0 69 11 4 11 11 3
33 -11 30 -5 61 13 61 6 0 10 -28 10 -69z m-13 -322 c-11 -29 -12 -29 -15 -9
-3 18 10 38 25 40 1 0 -4 -14 -10 -31z"/>
<path d="M1607 362 c-22 -24 -21 -31 3 -25 11 3 20 14 20 24 0 24 -3 24 -23 1z"/>
<path d="M1464 238 c17 -26 44 -43 54 -33 3 2 -1 11 -8 20 -7 9 -15 13 -18 10
-3 -3 -14 3 -25 12 -20 18 -20 18 -3 -9z"/>
<path d="M1560 215 c-17 -32 -4 -51 21 -29 22 20 25 40 5 47 -8 3 -19 -5 -26
-18z"/>
</g>
</svg>
